<svg width="580" height="400" xmlns="http://www.w3.org/2000/svg">
 <!-- Created with Method Draw - http://github.com/duopixel/Method-Draw/ -->

 <g>
  <title>background</title>
  <rect fill="#fff" id="canvas_background" height="402" width="582" y="-1" x="-1"/>
  <g display="none" overflow="visible" y="0" x="0" height="100%" width="100%" id="canvasGrid">
   <rect fill="url(#gridpattern)" stroke-width="0" y="0" x="0" height="100%" width="100%"/>
  </g>
 </g>
 <g>
  <title>Layer 1</title>
  <g id="svg_29">
   <path fill="#97c074" id="svg_28" d="m467.179779,158.877197l-15.964294,0c-13.02359,0 -23.946442,-11.12561 -23.946442,-24.330841c0,-6.654633 2.835815,-12.685364 7.877136,-17.156418l10.292664,-9.981956c10.187805,-9.981911 10.187805,-26.306488 0,-36.288391l-23.421234,-22.979191c-4.621246,-4.575069 -11.448029,-7.278519 -18.379913,-7.278519c-6.931946,0 -13.653717,2.703449 -18.379974,7.278519l-9.872772,9.773952c-4.726257,5.198891 -11.027924,8.006287 -17.854675,8.006287c-13.443665,0 -24.681702,-10.813679 -24.681702,-23.603031l0,-15.908686c0,-14.037017 -11.447998,-26.098537 -25.731934,-26.098537l-31.928619,0c-14.283813,0 -25.626862,11.957518 -25.626862,26.098537l0,15.80475c0,12.789291 -11.238022,23.603024 -24.681656,23.603024c-6.721771,0 -12.918472,-2.807388 -17.434662,-7.694401l-10.18779,-9.981895c-4.62117,-4.679008 -11.448029,-7.278519 -18.379898,-7.278519s-13.653763,2.703449 -18.38002,7.278519l-23.631332,22.875195c-10.082703,9.981895 -10.082703,26.306473 0,36.184441l9.872681,9.774002c5.251389,4.679016 8.192123,10.917686 8.192123,17.572319c0,13.309174 -10.922913,24.330841 -23.946411,24.330841l-15.964279,0c-14.388885,0 -26.467155,11.125763 -26.467155,25.266769l0,15.804672l0,15.804718c0,14.037048 12.07827,25.266678 26.467155,25.266678l15.964279,0c13.023499,0 23.946411,11.125687 23.946411,24.330948c0,6.654602 -2.940735,12.89328 -8.192123,17.572266l-9.872681,9.670044c-10.082703,9.981964 -10.082703,26.306519 0,36.184418l23.421234,23.083221c4.621307,4.678986 11.448166,7.278442 18.380005,7.278442c6.93187,0 13.653625,-2.703369 18.379898,-7.278442l10.18782,-9.981903c4.411163,-4.886993 10.712875,-7.694427 17.434753,-7.694427c13.443512,0 24.681564,10.813782 24.681564,23.603027l0,15.804779c0,14.037018 11.343048,26.098511 25.731934,26.098511l31.92865,0c14.283783,0 25.626831,-11.957581 25.626831,-26.098511l0,-15.804779c0,-12.789246 11.238068,-23.603027 24.681702,-23.603027c6.721741,0 13.023438,2.911346 17.854828,8.006348l9.872589,9.773926c4.726288,4.575043 11.448029,7.278473 18.380035,7.278473c6.931824,0 13.653564,-2.70343 18.379852,-7.278473l23.421387,-23.08313c10.082703,-9.981934 10.082703,-26.306488 0,-36.288452l-10.292786,-9.981934c-5.041382,-4.4711 -7.877106,-10.605774 -7.877106,-17.156403c0,-13.309235 10.922943,-24.330841 23.946503,-24.330841l15.964233,0c14.283905,0 24.471588,-11.125763 24.471588,-25.266846l0,-15.90863l0,-15.804672c0.210083,-14.141006 -9.977722,-25.266769 -24.261536,-25.266769zm-92.109894,41.071442l0,0c0,45.854462 -37.495056,83.182648 -84.022522,83.182648c-46.527527,0 -84.02272,-37.328186 -84.02272,-83.182648l0,0l0,0c0,-45.854385 37.495193,-83.182594 84.02272,-83.182594c46.527466,0 84.022522,37.328209 84.022522,83.182594l0,0z"/>
  </g>
 </g>
</svg>