<svg width="580" height="400" xmlns="http://www.w3.org/2000/svg" style="vector-effect: non-scaling-stroke;">
 <!-- Created with Method Draw - http://github.com/duopixel/Method-Draw/ -->

 <g>
  <title>background</title>
  <rect fill="#fff" id="canvas_background" height="402" width="582" y="-1" x="-1"/>
  <g style="vector-effect: non-scaling-stroke;" display="none" overflow="visible" y="0" x="0" height="100%" width="100%" id="canvasGrid">
   <rect fill="url(#gridpattern)" stroke-width="0" y="0" x="0" height="100%" width="100%"/>
  </g>
 </g>
 <g>
  <title>Layer 1</title>
  <g id="svg_40">
   <g transform="matrix(1.22029, 0, 0, 1.17906, 238.728, 157.197)" id="svg_34">
    <g id="svg_35">
     <path fill="#97c074" id="svg_36" d="m52.693512,-83.011765c0,0 0,0 0,0l0,0z"/>
     <path fill="#97c074" id="svg_37" d="m145.893463,139.888184c-11.199951,-3.900009 -29.499992,-5.09996 -37.499992,-8.199997c-5.599976,-2.200012 -14.5,-4.5 -17.300049,-8c-2.899902,-3.399963 -2.899902,-28.099976 -2.899902,-28.099976s7,-6.5 9.899902,-13.799988c2.900024,-7.300049 4.800049,-27.100033 4.800049,-27.100033s0.599976,0.200012 1.5,0.200012c2.099976,0 5.900024,-1.400024 7.699951,-10.599976c2.200073,-11.300049 6.400024,-17.200014 5.300049,-25.500002c-0.800049,-5.600038 -3.199951,-6.500001 -4.599976,-6.500001c-0.700073,0 -1.200073,0.199951 -1.200073,0.199951s5.700073,-8.399963 5.700073,-36.999999c0,-29.399965 -22.700073,-58.399965 -64.599983,-58.500002c-42,0.100037 -64.600098,29.100037 -64.600098,58.500002c0,28.499999 5.700074,36.999999 5.700074,36.999999s-0.5,-0.199951 -1.200073,-0.199951c-1.5,0 -3.899903,0.899963 -4.599976,6.500001c-1.099974,8.299988 3,14.29999 5.300049,25.500002c1.799927,9.199951 5.599976,10.599976 7.699951,10.599976c0.900024,0 1.5,-0.200012 1.5,-0.200012s1.900024,19.900021 4.800049,27.100033c2.900024,7.299988 9.900024,13.799988 9.900024,13.799988s0,24.700012 -2.900024,28.099976c-2.900024,3.400024 -11.700073,5.799988 -17.300048,8c-8,3.100037 -26.299925,4.299988 -37.5,8.199997c-11.199951,3.900024 -45.79998,20.200012 -45.79998,65.200012l278.000053,0c0,-45 -34.5,-61.299988 -45.800049,-65.200012z"/>
    </g>
    <path fill="#97c074" id="svg_38" d="m-59.206512,127.088211c9,-4.5 17.799927,-4.5 24.599976,-5.399963c0,0 3.800051,-6.200073 -8.699951,-8.400024c0,0 -17.100037,-4.300049 -19.100033,-6.700012c-1.999996,-2.399963 -0.799988,-15.700012 -0.799988,-15.700012s23.900021,-0.799988 33.400023,-9.199951c-15.500002,-23.200069 -7.200075,-50.300047 -10.400026,-75.600036c-3.099976,-25.200011 -18.200073,-40.999997 -47.100029,-40.999997c-0.099976,0 0,0 -1,0l0,0c-28,0 -42.400032,15.799986 -45.599983,41.099973c-3.200012,25.299989 6,55.400027 -9.900024,75.700011c8.900024,7.900024 30.900032,8.300049 33.400032,8.300049c0.200012,0 0.200012,0 0.200012,0c0,0 0.099976,-0.100037 0.099976,-0.100037s1,14.200012 -1,16.600037c-2,2.399963 -7.900024,4.599976 -11.900024,5.5c-8.799995,1.899963 -18.099983,5 -25.799995,7.699951c-7.700012,2.599976 -22.5,18.200012 -22.5,37.199997l80.20002,0c2.200012,-8 17.299988,-22.600021 31.900017,-29.999985z"/>
    <path fill="#97c074" id="svg_39" d="m196.493439,157.088196l80.200043,0c0,-18.999985 -14.800049,-34.600021 -22.499969,-37.299973c-7.700073,-2.700012 -17.100098,-5.800049 -25.800049,-7.700012c-4.099976,-0.899963 -9.900024,-3.100037 -11.900024,-5.5c-2,-2.399963 -1,-16.600037 -1,-16.600037s0.099976,0.100037 0.099976,0.100037c0,0 0.100098,0 0.200073,0c2.5,0 24.599976,-0.299988 33.5,-8.299988c-15.900024,-20.300045 -6.800049,-50.400023 -10,-75.700011c-3.200073,-25.200011 -17.599976,-40.999997 -45.599976,-40.999997l0,0c-1,0 -1,0 -1,0c-28.900024,0 -44.100098,15.799986 -47.200073,41.099973c-3.199951,25.299989 5.099976,52.400027 -10.400024,75.600036c9.5,8.400024 33.400024,9.199951 33.400024,9.199951s1.200073,13.300049 -0.799927,15.700073s-19.100098,6.699951 -19.100098,6.699951c-12.5,2.200012 -8.699951,8.400024 -8.699951,8.400024c6.800049,0.900024 15.699951,0.900024 24.599976,5.400024c14.700073,7.299927 29.800049,21.899948 32,29.899948z"/>
   </g>
  </g>
 </g>
</svg>