<svg width="580" height="400" xmlns="http://www.w3.org/2000/svg" style="vector-effect: non-scaling-stroke;">
 <!-- Created with Method Draw - http://github.com/duopixel/Method-Draw/ -->

 <g>
  <title>background</title>
  <rect fill="#fff" id="canvas_background" height="402" width="582" y="-1" x="-1"/>
  <g style="vector-effect: non-scaling-stroke;" display="none" overflow="visible" y="0" x="0" height="100%" width="100%" id="canvasGrid">
   <rect fill="url(#gridpattern)" stroke-width="0" y="0" x="0" height="100%" width="100%"/>
  </g>
 </g>
 <g>
  <title>Layer 1</title>
  <g stroke-opacity="0" id="svg_46">
   <path stroke="#000000" fill="#97c074" id="svg_45" d="m381.957184,243.640762c15.58606,-24.521912 24.729736,-53.615753 24.729736,-84.891556c0,-87.385292 -70.760223,-158.249444 -158.041626,-158.249444c-87.385239,0 -158.145523,70.864152 -158.145523,158.249444c0,87.385315 70.760284,158.249451 158.041656,158.249451c31.691452,0 61.200882,-9.351563 85.930527,-25.35321l7.169647,-4.987488l112.842194,112.842346l35.016479,-35.639832l-112.738434,-112.842377l5.195343,-7.377335zm-44.78363,-173.315872c23.586761,23.586761 36.575073,54.966431 36.575073,88.320404c0,33.353958 -12.988312,64.733704 -36.575073,88.320435c-23.586761,23.5867 -54.966492,36.575043 -88.320404,36.575043c-33.354034,0 -64.733765,-12.988342 -88.320404,-36.575043c-23.586823,-23.586731 -36.575134,-54.966476 -36.575134,-88.320435c0,-33.353973 12.988312,-64.733643 36.575134,-88.320404c23.586639,-23.586761 54.96637,-36.575081 88.320404,-36.575081c33.353912,0 64.733643,12.988319 88.320404,36.575081z"/>
  </g>
 </g>
</svg>